<svg xmlns="http://www.w3.org/2000/svg" viewBox="0 0 865.91 939.17"><defs><style>.a{fill:#258ea6;opacity:0.6;}.b,.d{fill:#cecbc1;}.b,.c{opacity:0.7;}.e{opacity:0.95;}.f,.g{fill:#dddad3;}.f{opacity:0.85;}.h{fill:#8fa47f;opacity:0.4;}.i,.j,.k,.m,.q,.s{fill:none;}.i,.k,.l,.m,.n,.o,.p,.q,.r,.s{stroke:#000;}.i,.k,.m,.o,.p,.q,.r,.s{stroke-linecap:round;stroke-linejoin:round;}.i{stroke-width:0.14px;}.j{fill-rule:evenodd;}.k{stroke-width:0px;}.l,.n,.p{fill:#b5bab9;}.m{stroke-width:0.14px;}.n{stroke-miterlimit:10;}.o{fill:#b3b3b3;stroke-width:0.14px;}.p,.q,.r{stroke-width:0.99px;}.r{fill:#6d6e71;}.s{stroke-width:1.42px;stroke-dasharray:6.39 2.13 0.71 1.42;}.t{font-size:4.24px;}.t,.x{font-family:ArialMT, Arial;}.u{letter-spacing:-0.04em;}.v{letter-spacing:-0.06em;}.w{letter-spacing:-0.07em;}.x{font-size:4.24px;}.y{letter-spacing:-0.07em;}.z{letter-spacing:0em;}</style></defs><title>map</title><path class="a" d="M413.68,139.05l-15.14,26.42s-7.77,22.08-8.47,25-3,15.16-4,18.07-10.75,25.5-10.75,25.5l-5.39,16.52-10.79-3.51,4.38-15.81s3.84-10.56,5.88-14.21,6.17-8.18,6.62-10.18c.83-3.72,1.77-11.68,3.2-15.64.74-2,8.24-24.37,8.24-24.37l8.05-5.16Z" transform="translate(0.78 0.71)"/><path class="a" d="M333.39,348.46s-1.35,4.44-2.53,7.29-2,11-1.61,13.59,2,18.19,1.66,21.44-1.12,33.83-1.12,33.83l14.78-8.2s2-11.62,2.1-12.91,1.52-7.49,1-11.68-1-15.49-1-18.84-.34-13.75-.34-13.75l-2.17-3-3.44,2.38Z" transform="translate(0.78 0.71)"/><path class="a" d="M335.53,464.71l1.79,17.77-4.87,5.75s-2.26,7.78-3.32,10.25-5.64,9-5.64,9l-8.13-4.38s4.28-4.45,4.85-6.41,8.69-16.77,8.72-17.83,1-3.24.1-4.68-1.21-4.94-1.21-4.94Z" transform="translate(0.78 0.71)"/><path class="a" d="M300.28,532.53l9.81,5.46s-2.28,11.32-2.39,13.33-1.53,22.77-1.69,24.08-2.61,18.24-2.72,20.11.47,12,.47,12a16.74,16.74,0,0,1-4.27,0,51.41,51.41,0,0,1-4.92-1.87l0-11.69a44.51,44.51,0,0,1-.25-6c.2-1.27.85-12.46.85-12.46s.43-9.56.43-12.35.82-11.38.87-12,1.91-9,2.28-10S300.28,532.53,300.28,532.53Z" transform="translate(0.78 0.71)"/><path class="a" d="M309.64,631.64s8.28,28.23,9.52,31.63,6.6,18.25,7.26,19.87,3,8.35,2.89,10,.19,9.89-1.42,11.81a46.65,46.65,0,0,1-7.92,6.56c-1.26.67-15,1.29-17.78,2.94s-7.42,4.4-8.78,6.17-3.76,8-.17,12.41,10,2.64,11.26,2.75,13.46-.28,14.83.13,9.48,5.79,11.77,7.74,4.78,5.88,5,8.62-1.92,7.28-4.46,10.74a162.26,162.26,0,0,1-11.2,12.67c-3.43,3.59-6.89,8.1-7.94,12.09s-3.07,10.5-3.12,11.9-.43,3,1,4,7.26,3.18,8.56,3.89a52.93,52.93,0,0,1,8.8,8c2.09,2.6,6.25,7.2,6.67,8.73s2.3,7.87,2.26,13.55,7.63,22,8.1,22.23,2.63,3,4.52,2.32,17.75-6.53,17.75-6.53l-26.89,15.26-7.76-8.51-7.21-13.43s.36-8.08.37-12.3c0-1,0-1.83-.06-2.23-.25-2.06-.1-5.27-1.1-7.32s-2.26-5.37-4.48-6.67-14.86-9-14.86-9-3.61-3.09-4.38-5.25-.65-6.54,1-10.84,2.42-8.77,3.08-10.21,4.74-5.71,5-6.74a47.19,47.19,0,0,1,3.22-6.64c.46-.53,10.27-10,11-10.55s2.71-5.35,2.35-7.38-1.1-5.72-1.83-6.31a10.86,10.86,0,0,0-3.87-1.32,84.11,84.11,0,0,1-8.31-3.09c-1-.48-5.39-.12-7.63.08a39.61,39.61,0,0,1-8.84-.21c-1.85-.44-7.43-.89-8.1-1.76s-3.57-1.41-4.61-4.67-2.09-8.35-1.63-12.3,1.71-7.83,2.78-8.9,8.65-8.39,11.47-9.9,9.59-3.44,11.27-3.22,8-.58,9.55-2.38,3.55-6.36,2.45-9.08-4.94-9.17-5.83-10.73-7.35-23.83-7.91-25.94-2.46-10.32-2.71-11.22-1.84-6.34-1.84-6.34a18.83,18.83,0,0,1,3.68-2.89C306.32,632.93,309.64,631.64,309.64,631.64Z" transform="translate(0.78 0.71)"/><circle class="a" cx="522.3" cy="414.63" r="21.9"/><path class="a" d="M510.5,512.81c-.59-1.13-1.26-1.22-1.78-1.14s-2.09,1.55-3.63.22-3-2.38-3.15-3.27,0-2.08,1-5.06c.8-2.3,1-3.6.48-4.83a4.57,4.57,0,0,0-2.69-2.86,7,7,0,0,1-3.29-3.91c-.65-1.5-2.86-3.66-3.85-3.58a4.45,4.45,0,0,0-2.52,1,25.18,25.18,0,0,0-1.74,4.11,11.08,11.08,0,0,0,.39,3.75,16.65,16.65,0,0,0,2.52,3.59c.07.08,1.61,1.23,2,1.6s1,1.65.9,1.95-1.55,3.21-1.55,3.21a3,3,0,0,0,.05,1.47c.23.8,1.73,1.53,2.37,2.61a33.89,33.89,0,0,0,2.79,4,11.29,11.29,0,0,0,3,2.27c.33,0,3.58.21,4.43-.29a4.55,4.55,0,0,0,1.25-1l0-1.08h1.28l.68-1.16,1.58,0Z" transform="translate(0.78 0.71)"/><path class="a" d="M211.67,720.1s.07-.28.94-.57,1.88-1.15,3.67-.68A13.58,13.58,0,0,1,223,722a25.2,25.2,0,0,1,5.27,6.18,14.14,14.14,0,0,1,1.84,6.35,2.63,2.63,0,0,1-1,2.12,13.18,13.18,0,0,1-3.27.93,67.85,67.85,0,0,1-7.48-2.57,21.68,21.68,0,0,1-3.32-2.12,2.62,2.62,0,0,1-.93-2.15c0-.34.87-2.56,1-3s.17-1.15-.26-1.17a6.51,6.51,0,0,1-2.64-1.06A2.6,2.6,0,0,1,211,723,9.11,9.11,0,0,1,211.67,720.1Z" transform="translate(0.78 0.71)"/><path class="b" d="M442.92,73.41,428.83,91.55s5-.91,6.75.14,5.29,4,7.19,5.23,7.15,7.81,19.18,26c6.91,13.17,18.82,93.22,18.22,141.15,1.38,6.91,2.32,15.32,8.31,22.58,7.16,1.75,105.09,24.26,113.73,26.31,5.48,3,7.69,9.17,7.69,9.17l24,28.94-29.18,23.2,16.09,20.38S653,449.73,663.25,470.8c1,7.22.93,7.86.93,7.86-2.42,6.95-9.91,21-9.91,21l14.7,8.47,46.57-31.33,3.45-2.32,5.17-16.37L702.9,430l-21.44-22.46,17.83-16.25-18.45-20.79-17.05,14.76-17.91-19.6,27.24-24.91-4.85-5.66L683.9,320.8l4.92,5.14,7.11-6.32,4.5,4.47,6-5.44-6.9-7.61-36.13-2.75-9.58-.72L537.39,283s-22.21-3.58-28.82-7.19S493,269.74,492,252.48c-.81-4.45-1.65-23.41-2-26.14s-2.27-18.51-2.27-18.51l-5.1-38.69-.64-4.46s-2.16-17.93-3.4-24.06c-1.75-5.43-9.51-31.21-11.92-37.13C461.8,97,451.46,83.55,451.46,83.55L446,79.31c-2.32-4.43-3.08-5.9-3.08-5.9" transform="translate(0.78 0.71)"/><path class="b" d="M306.85,205l-1.12,5.51c3.26,8.67,8.4,9.15,8.4,9.15l18-12.86,7.91,11.41-8.3,19.19-1.61-.32-4.29,11.17L318.53,253l-4.84,10.24-6.19-3L278.44,279.7l-3.29,10.69,3.49,1.33-3.38,12.93,11,4-2.52,7.29-6.83,4.8-14.84-21.16-50,34.28,4.1,6.29-24.78,16.75-5-7.58L172.12,359l-5.48-27.43,5.47-5.28,111.12-77.63L294.11,239s2.71-2.1,1.59-6.32c-5.1-7.38-5.27-7.86-7.52-10a6.2,6.2,0,0,0-5.73-.44Z" transform="translate(0.78 0.71)"/><g class="c"><path class="d" d="M418.21,703.71l-9.73-9.83s-12.82,2.74-19.55.1-12.56-5.32-19.47-14.48c-12.87-17.08-28.2-51.33-28.2-51.33a17.7,17.7,0,0,1,.8-12.79l2.82-9.12,4.19-10.8s-4.83-7-6.78-6.5S332,584.35,332,584.35l-12.59,18-8.08,2.85-.84.37s-12.86,5.64-17.89-1.44l-6,2.21s-5,5.69-.75,8.15l1.26,8.13c-.54,5-1.44,6.07-1.44,6.07l-11,6.94s-2,2-4.84-1.54l-4.75-49.69-15.47-25.54-8.87-10.27s-19-2.46-18.5-27C206,513,203.55,506,203.55,506s-29.3,4.65-43.84-20.42L173.37,478s-61-110.44-63.77-122c.16-6.49.22-9,.22-9l-29.4,22,5.64,4.71A7.94,7.94,0,0,1,88.6,378l5,10.5s3.12,3.86-1.64,7.2C56.28,411.18,25.07,447.89,45,497.92c25.57,44.18,104,183.7,104,183.7s17-6.09,23.57-2.44c6.8,6.53,18.75,4.22,18.75,4.22s26.59-16.82,30-14.78c1.53,1.78,3.51.81,2.91,4.25,2.7.78-5.82,6.3-5.82,6.3s-42,27.29-50.26,28.63c-9.66-.23-20.78,2.21-27.8-7.32-5.55-10.93,25,54.68,20.54,45-3.39-7.41,14.76-23.58,14.76-23.58l51.24-28.42,3.17.16,3.67-2.09-.05-3.18,60.86-45.66,7.18-6.79s10.63-7.71,16.09-5.88l4.86,1.12c2.25.51,4.3,5.41,4.3,5.41s2.34,13,4.38,13.25a7.08,7.08,0,0,1,3.77,2.05s9.36,14.95,18.56,40c1.32,3.58-4.67,10.06-10.75,15.61s-5.42,13.93-5.63,17.53,3.34,22,4.15,25.11c1.7,6.52,3.56,11.53,3.56,17.68s-.55,17-.55,17-3.65,25,.31,33.89c3.61,8.08,3.81,11.71,3.81,11.71l16.84,0s5.49-2.13,6.67-2.76L378.23,803,396,806.91l1-4.14s5.87-10.46,5-11.13c-2.22-1.72-11-.78-14.87-6.24-1.23-1.74-1.18-4.07,2.14-4.69,5.8-1.09,12.56-.63,15.68-2.25,1.11-.57,6.16-3.91,3.84-6.53s-1-15.53-1.56-29.42,4.29-24.32,3.79-26.92,4.69-9,4.69-9Z" transform="translate(0.78 0.71)"/></g><g class="e"><path class="f" d="M453.58,845.46l9.16,2.44s3.37-11.6,4.67-17.19c3.75-16.22-.12-20.57-2.77-24.93-4.67-3.06-16-8.26-17.33-9.6a13.68,13.68,0,0,1-2.44-3.23s-5-1.64-6.46-.68c-2.44,1.66-4.39,1.73-11.83,2-11.46,2.78-23.87-3.41-24.61-2.63s-5,11.13-5,11.13l48.12,10.89-1.36,6.59,14.95,2.54Z" transform="translate(0.78 0.71)"/><path class="f" d="M419.71,370.14l-4.25-2.29s-7.38-2.54-10.6,1.81a47.92,47.92,0,0,0-4.42,6.89l-16.32-23s12.57,2.29,24.25-10.36c8.63-10.71,8.66-11.41,12.24-20.75,2.61-9.27,11.26-18.11,16.45-23.78s8.6-10.33,14.86-13.48c5.69-2.86,13.14-3,17.52-7.55,2.26-2.44,10.73-13.52,10.73-13.52l2.39,11,5.92,11.54-9.52,1s1-.78-9.54,4c-8.33,2.31-23,16.44-31.14,30.89-9.08,21.34-6.37,29.42-4.19,33.86.39,1.62,9.21,17.88,11.86,22.05s7.41,17.4,15.11,17.74c4.28,7.25,14.76,7.58,15.95,9.47l-5,9.2s-14.34-1.78-19.79,10.84c-4.75,11-3.32,18.07,1.84,26.09L448.94,456s-1.4-2.62-5.83-5.9-14.41-7.87-14.41-7.87l-14.13-1.74s-16.14,4-22.32,12.65-18,33.08-19.59,38.44-12.88,58.31-12.88,58.31S349.2,585.64,348.71,587s-2.23,5.14-2.23,5.14L332,584.35s16-34,16.66-70.18a102.66,102.66,0,0,1,3.78-20.75s5.31-9.71,5.62-16.49-4.16-18.17-4.16-18.17l13.71-7.67s-7,8.76-2.11,8.86,7.45-13.56,18.71-23a90.2,90.2,0,0,1,22.81-13.85s11.4-1.38,19.42-5,10.44-8.6,12.26-16.06-8.32-19.27-8.32-19.27-5.2-7.75-8.42-10.56Z" transform="translate(0.78 0.71)"/><path class="g" d="M556.17,407.82l-.9-4.11-1.43-4-1.76-3.68-2.54-4.61-2.27-3.75-1.58-2.9-1.27-4.35-.32-1.61-.05-.26-8.72-6.49h-1l-1.81-.53-1.47-.32-2.13-.25-2.59.57-2.28.81-3.56,1.41-4.09,1.81-4.32,2.11-3.55,1.91L505.39,382l-2,2.19-1.91,2.33-2.55,2.95-2.59,2.83-3.5,3.85-2.44,2.74-1.59,1.88-.88,1.21-.67,1.4-.86,1.57-1.1,1.57-.71.81-.84.59-.85.41-.94.35-.69,0-.93-.06-.69-.38-1.06-.65-.91-1-.66-.92-5,9.2,2.52,1.06,1.72,1,2.18,1.85,1.7,1.78.93,1.4,1.28,2.44,1.41,3,.93,2.46,1.26,2.2,1.68,2.58,1.5,1.92,1.84,1.84,2.75,2.12,3.27,1.71,4.63,1.59,4.73,1,.2.34.59.4.47.36.45.47.3.46.19.32v.61l-.56,1.22-1.73,2.17-2.47,2.05-2.43,1.71L499,456.07l-3,.88-2.36.47-6.24,1.7L481,461.06l-7.77,2.68-2.46.68-1.63.21-1.66-.14-2.05-.73-1.66-.94-.86-.59-.22-.27-1.33-1.69-2.86-3.63-3-3.26L454,451.73l-4.74,4,2.08,1.8,1.71,2.09,3.5,4.08,3.17,3.59,3.1,4.27,5.29,8.16,5.88-3.07-.12-1.45.17-1.44.72-2,.93-1.42,1.34-1.31,1.7-1.07,1.57-.61,2.4-.72,2-.6,2.53-.77,2.48-.73,2.24-.62,2.72-.67,2.94-.69,2.49-.75,2.19-.88,1.56-.81,2.24-1.43,2.09-1.65,1.86-1.54,1.52-.9,2.25-1,3-.87-.11-.39,1.87-.49,2.47-.83,4.37-1.48,5.92-2.93,3.88-2.25,3.79-2.5,2.6-1.94,4.13-3.44,2.73-2.81,2.29-2.92,1.25-1.83,1.19-2.12,1.69-4,.85-2.65.31-2.08.42-2.9.09-3.46Zm-4.55,6.81-.53,3.21-.67,2.46-1.16,3.39-1.94,3.21-2,2.73-3.1,3.27-4.34,3.61-3.81,2.64L529.61,442l-4.81,2.39-3.28,1.23-1.47.48-1,.12-1.17.16-1.37-.2-1.23-.56-.81-.57-2.9-2-1.3-1-1.53-.61-2.93-.7-2.73-.66-2.23-.62-2.47-1-3.1-1.74-1.6-1.18-1.45-1.38-1.52-1.89-1.15-1.81-1.22-2-.77-2-.59-1.75-.64-2.1-.39-1.51-.16-1.13.07-1.14.29-1.26.71-2.15,1.15-2.29,1.22-2.37,1.86-3.49,1-1.83,1.48-2,1.64-1.88,2.63-2.92.59-.64,3.49-4,2.25-3.18,1.72-2,2-2,1.78-1.44,3-1.53,3-1.33,2.41-1.2,2.06-.94,2.32-.91,2.76-.58h2l1.43.15,3,.61,3,1.53,2.15,1.19,1.1.81,1.32,1.36,2.2,3.25,1.69,2.75,2.77,4.56,2.5,4.83,2.06,4.88,1.12,5.52.08,2Z" transform="translate(0.78 0.71)"/><polygon class="g" points="477.79 406.31 476.31 403.9 475.27 401.05 474.91 398.58 475.08 396.84 475.88 394.49 477.11 391.55 479.86 385.16 481.25 381.8 475.46 379.4 472.07 387.48 470.3 391.55 469.34 393.49 468.13 394.71 467.02 395.51 465.08 396.3 463.22 396.83 461.84 396.84 463.47 399 465.46 400.76 468.09 402.35 470.92 403.57 477.79 406.31"/><polygon class="g" points="544.97 378.66 545.44 377.51 546.69 376.05 548.57 374.33 550.48 372.71 551.1 372.14 566.52 356.28 569.97 353.02 575.92 347.69 579.66 344.6 583.88 341.1 585.86 339.65 594.59 332.62 598.39 329.72 606.66 323.44 607.82 322.79 608.84 322.56 610.1 322.7 610.71 322.88 610.09 321.51 608.54 318.66 606.91 316.82 605.47 315.41 603.97 314.27 602.99 313.68 603.27 314.93 603.28 315.46 603.15 316.02 602.6 316.66 599.43 319.23 593.14 324.09 576.05 337.66 565.96 346.37 560.97 350.88 545.76 366.78 544.11 368.41 542.36 370.07 540.86 371.24 539.44 371.95 537.96 372.5 536.72 372.79 536.17 372.84 544.83 379.29 544.97 378.66"/><polyline class="g" points="468.91 480.42 470.92 483.82 473.52 488.41 475.99 494.23 477.64 498.38 479.77 504.6 480.78 507.96 481.91 512.91 482.11 516.48 481.91 520.29 481.25 525.07 479.89 532.12 478.67 536.73 477 540.62 474.52 545.19 472.65 547.89 470.24 550.74 465.47 555.9 463.03 558.58 459.92 561.62 458.12 562.84 456.18 563.84 451.52 565.72 448.06 566.82 443.89 567.8 440.29 568.42 424.79 569.79 383.85 575.96 376.77 577.49 369.85 579.68 362.56 582.32 357.49 584.5 352.13 587.55 348.74 589.48 347.26 592.82 349.82 596.14 352.09 593.81 359.17 589.7 363.85 587.61 367.64 586.17 373.54 584.14 376.81 583.09 379.02 582.53 397.02 579.6 413.3 576.85 423.79 575.33 426.83 575.02 453.33 570.8 456.67 569.54 459.64 568.16 462.22 566.6 464.66 564.59 466.59 562.74 468.39 560.73 472.86 555.87 475.74 552.67 477.88 550.38 479.89 548.96 484.23 539.23 484.36 537.94 485.04 535.54 486.35 529.53 487.11 525.01 487.71 520.26 487.89 517.11 487.89 514.44 487.19 509.84 486.11 505.52 484.92 501.49 482.45 494.9 481.04 491.29 479.11 486.83 477.88 484.34 476.63 482.03 475.91 480.72 474.79 477.35"/><polygon class="g" points="450.27 571.92 448.54 573.07 446.62 575.02 445.58 576.61 445.18 577.72 444.71 580.68 444.58 583.59 444.58 586.53 445.06 589.9 445.64 592.69 446.41 596.53 446.76 598.52 447.08 601.01 447.26 602.73 447.54 604.72 448.33 607.19 449.72 610.3 450.75 612.24 451.03 612.68 451.43 613.11 451.96 613.26 452.99 614.41 455.7 618.19 458.54 624.69 462.08 635.61 466.42 648.96 466.2 651.13 465.37 655.57 464.12 658.32 462.08 661.42 460.02 664.15 458.06 666.59 455.04 670.32 452.54 673.49 450.33 676.07 448.27 679.24 445.1 684.28 442.56 687.81 439.33 691.98 436.92 694.44 436.02 695.66 434.17 696.8 429.86 698.63 425.24 700.26 421.42 702.1 418.65 704.07 409.26 694.59 412.58 694.23 414.86 693.74 419.11 692.9 422.74 692.07 425.17 691.58 427.16 691.19 429.59 690.23 432.44 688.74 434.8 686.93 437.77 684.01 439.95 681.4 442.78 677.55 448.67 669.46 451.02 666.76 454.02 663.26 455.94 660.83 457.14 658.85 458.17 656.87 459.02 654.63 459.5 652.23 459.7 649.12 459.53 648.27 458.77 642.78 458.09 639.4 457.2 635.85 456.2 632.33 454.67 626.63 453.83 623.55 452.94 621.51 451.64 619.88 450.45 618.44 448.45 616.4 446.88 614.89 446.24 614.14 445.02 611.38 443.55 607.6 443.19 606.44 442.89 603.44 442.49 600.76 441.24 595.02 439.75 589.35 438.5 585.62 437.39 582.91 436.24 580.44 435.47 579.21 434.74 578.32 433.77 577.44 432.56 576.66 431.24 576.08 429.75 575.57 428.39 575.21 426.83 575.02 453.33 570.8 450.27 571.92"/><polyline class="g" points="484.23 539.23 484.49 540.74 485.19 542.14 486.89 543.73 489.26 545.01 496.6 548.21 507.56 552.86 516.72 557.67 521.71 560.81 526.97 564.49 533.86 569.31 540.06 573.64 546.46 578.12 547.12 578.44 548.24 578.31 549.16 577.8 550.54 576.64 552.42 575.22 554.13 574.18 556.64 572.97 558.28 572.26 559.76 571.7 560.46 571.43 561.5 570.96 562.57 570.02 563.29 569.05 563.89 567.9 564.4 566.56 564.7 564.85 564.79 563.32 564.55 561.26 563.95 559.33 563.21 557.64 560.95 553.42 559.77 550.88 559.09 548.95 558.69 547.22 558.43 544.31 558.67 541.6 558.93 540.32 559.94 537.43 560.95 534.86 561.62 533.04 562.28 531.17 563.43 528.6 564.6 526.58 564.88 525.63 564.88 524.73 564.05 523.06 563.02 521.74 562.12 520.83 559.6 518.56 558.14 517.13 556.88 515.72 555.72 513.56 555.06 512.04 554.62 509.63 554.41 507.46 554.56 505.86 555.1 504.32 556.55 501.52 557.95 499.2 558.86 497.75 561.97 492.72 564.81 488.64 567.6 484.91 571.61 479.24 574.25 475.01 576.06 472.41 577.1 471.41 578.41 470.67 580.68 470 580.71 474.71 580.08 474.91 579.29 475.59 577.99 477.48 575.7 481.22 574.1 483.62 571.51 487.14 566.25 494.46 563.89 498.07 561.92 501.51 560.41 503.8 559.54 505.49 559.11 506.81 558.95 507.46 558.95 508.59 559.18 509.88 559.54 511.21 560.2 512.57 561.72 514.34 563.39 515.92 565.53 517.87 567.06 519.63 568.1 521.07 568.93 522.86 569.39 524.4 569.39 525.88 569.23 526.81 568.91 527.9 568.14 529.44 566.91 532 565.54 535.38 564.2 538.85 563.22 541.72 563.04 542.74 562.94 543.73 563 545.58 563.31 547.31 564.12 549.69 565.58 552.59 567.02 555.09 567.73 556.78 568.64 559.22 569.03 561.38 569.26 563.82 569.03 566.28 568.38 568.53 567.38 570.99 566.16 572.76 564.94 573.96 562.95 575.3 560.51 576.2 557.41 577.59 555.35 578.74 553.91 579.63 553.37 580.17 553.03 581 552.75 582.15 552.75 582.67 557.61 585.66 564.07 589.75 568.38 592.45 573.34 595.71 578.19 598.83 583.35 602.2 586.54 603.47 601.92 610 609.66 613.29 610.04 612.53 620.49 617.4 616.6 622.98 607.6 618.49 607.6 617.94 591.42 610.98 584.7 608.13 580.85 606.49 555.32 590.13 545.77 584.29 528.41 571.82 513.87 561.8 507.91 558.36 500.1 554.76 491.56 550.86 487.12 549.11 485.22 548.44 483.31 548.21 482.2 548.32 481.45 548.42 479.89 548.96"/><polyline class="g" points="432.22 697.63 436.56 697.72 448.5 697.19 456.18 696.63 461.77 695.4 466.31 694.03 471.66 691.76 476.31 689.36 481.68 686.15 485.68 683.3 489.47 680.32 491.64 678.4 495.18 674.8 498.39 670.99 500.91 667.84 503.75 664.01 506.38 660.61 509.04 656.8 512.64 651.82 516.43 646.65 521.02 641.03 525.16 636.69 527.6 634.59 530.58 632.42 531.98 631.38 527.54 624.45 523.04 627.57 520.62 629.44 517.22 632.55 514.29 635.92 510.37 640.86 507.81 644.49 504.91 648.59 502.08 652.34 498.52 657.37 494.12 662.67 491.93 664.9 488.87 668.24 486.68 670.36 483.27 673.3 479.89 676.22 476.33 678.65 471.74 681.86 467.54 683.96 464.09 685.57 460.74 686.75 456.59 687.92 452.71 688.62 450.09 688.76 441.67 688.97"/><polyline class="g" points="655.04 500.36 654 504.71 651.72 514.14 647.16 533.04 646.71 534.91 644.31 552.75 643.54 558.47 642.95 562.87 641.91 570.55 641.14 576.26 637.93 582.98 633.04 592.86 626.95 605.33 624.01 611.19 622.69 614.04 620.51 617.25 616.5 623.26 614.96 625.21 604.38 636.67 579.86 651.67 570.38 658.31 548.05 686.14 532.26 720.32 530.12 752.39 535.49 778.77 538.86 791.45 575.05 882 584.46 876.92 569.97 838.6 566.35 829.01 558.42 810.65 551.38 794.11 546.45 780.44 541.04 757.03 541.57 723.99 560 687.61 583.99 661.93 611.67 644.99 629.49 624.68 644.81 589.24 648.87 579.92 657.18 537.11 669.75 508.83"/></g><path class="h" d="M542.89,710.9a15,15,0,0,1-20.57-5.2,12.64,12.64,0,0,1-.64-1.2,15,15,0,0,1-7.94-23.74,14.9,14.9,0,1,1,18.69-4.09,14.87,14.87,0,0,1,6,5.65c.23.4.45.8.64,1.2a15,15,0,0,1,3.81,27.38Z" transform="translate(0.78 0.71)"/><path class="h" d="M519,777.88a19.94,19.94,0,0,1-22.35-32.94,14.94,14.94,0,0,1-1.82-8,23,23,0,0,1-8.66,9.18,22.53,22.53,0,0,1-30.95-7.53,22,22,0,0,1-2.77-15.05,17.39,17.39,0,0,1-17.77-14c-.48.34-1,.66-1.51,1a30,30,0,1,1,4.49-48.22,20,20,0,1,1,25.6,30l-.63.36a17.39,17.39,0,0,1,6.47,12.71,22.75,22.75,0,0,1,11.05-.24,10.29,10.29,0,1,1,15.53,9.55,10.16,10.16,0,0,1-1.4.7,22,22,0,0,1,2.86,14.36,15,15,0,1,1,25.15,16.36,19.59,19.59,0,0,1,3.62,4.47A19.93,19.93,0,0,1,519,777.88Z" transform="translate(0.78 0.71)"/><path class="h" d="M553.15,866.87a10.06,10.06,0,0,1-13.75-3.68,10.66,10.66,0,0,1-1.46-4.57,19.95,19.95,0,0,1-22.86-29,19.91,19.91,0,0,1-17.32-8.13,19.38,19.38,0,0,1-8.61-3.76,10.22,10.22,0,0,1-4,7.92,10,10,0,0,1,1.11,2.68,10.11,10.11,0,0,1,3.13,3.27A10,10,0,1,1,471,838.87a9.7,9.7,0,0,1-2.86-3.07A9.88,9.88,0,0,1,470.39,823l0-.07A10,10,0,0,1,474,809.24a10.17,10.17,0,0,1,8.63-.87,20,20,0,0,1,29.48-22.87,8.87,8.87,0,0,1,3-2.91,9.11,9.11,0,0,1,12.44,12.58A19,19,0,0,1,531,799.5a19.52,19.52,0,0,1,1.84,4,10,10,0,0,1,6.84,9.88A19.59,19.59,0,0,1,544,810a20,20,0,1,1,7,36.91,15.22,15.22,0,0,1-.64,1.43,10.29,10.29,0,0,1,6.15,4.7A10.06,10.06,0,0,1,553.15,866.87Z" transform="translate(0.78 0.71)"/><circle class="h" cx="517.92" cy="877.36" r="10.04"/><circle class="h" cx="484.52" cy="869.88" r="10.01"/><path class="h" d="M474.11,914.32a10,10,0,0,1-15.05-9.89,10,10,0,0,1,.49-16.87,10,10,0,0,1,15,9.88,10,10,0,0,1-.48,16.88Z" transform="translate(0.78 0.71)"/><path class="h" d="M432.5,911.8a10,10,0,0,1-13.71-3.48c-.15-.26-.29-.51-.42-.77a20,20,0,1,1,16.39-11.11,11,11,0,0,1,1.22,1.63A10,10,0,0,1,432.5,911.8Z" transform="translate(0.78 0.71)"/><circle class="h" cx="324.22" cy="864.99" r="17.79"/><path class="h" d="M275.42,890a18.15,18.15,0,0,0-20.81-8.09c-.44.12-.86.26-1.28.42a19.54,19.54,0,0,1-5.28,4.59,20.66,20.66,0,0,1-2.62,1.31,18.4,18.4,0,0,1,7.9-5.9,16.35,16.35,0,0,0,1-1.35,19.88,19.88,0,0,0-9.82-29.89,17.63,17.63,0,0,0,1-5,38.52,38.52,0,1,0,35.81-66.82,20,20,0,0,0,5.24-13.84,14.87,14.87,0,0,0,11.48-11.22,19.87,19.87,0,0,0,5.28.4,15,15,0,0,0,4.92,17.55A20,20,0,0,0,315.49,807c.11.22.24.43.37.65a19.77,19.77,0,0,0,6.71,6.8,14.77,14.77,0,0,0-4.66,1.82,15.12,15.12,0,1,0,20.72,5.25,14.89,14.89,0,0,0-3.69-4.18,20,20,0,0,0,3.44-39.22c-.12-.22-.25-.43-.37-.64a19.93,19.93,0,0,0-9-8,15,15,0,0,0-9.91-24.17,20.15,20.15,0,0,0,2.22-4.89,15,15,0,0,0,15.1-11.27c.38-.18.75-.39,1.12-.61a19.91,19.91,0,1,0-29.68-13A20,20,0,0,0,282.25,736,14.92,14.92,0,0,0,269.37,746a20,20,0,0,0-22.51,23.07,17.52,17.52,0,1,0-10.57,27.31,38.52,38.52,0,0,0-3.28,32,17.55,17.55,0,0,0-12.91,32.5,20,20,0,0,0-1.32,14.69,20,20,0,0,0,23.93,29.81,19.05,19.05,0,0,0,1.53,3.24A18.15,18.15,0,1,0,275.42,890ZM249.75,782.86a17.35,17.35,0,0,0,.22-5.93,20.4,20.4,0,0,0,3.52,4A35.07,35.07,0,0,0,249.75,782.86Z" transform="translate(0.78 0.71)"/><circle class="h" cx="206.22" cy="779.63" r="7.27"/><path class="h" d="M203.32,768A12.72,12.72,0,0,1,185,752.37a8.76,8.76,0,0,1-1.19-1.57,9,9,0,0,1-.53-8.17,10.24,10.24,0,1,1,15.15-2.13,8,8,0,0,1,.79,1.11,8.94,8.94,0,0,1,1.15,3.2,12.71,12.71,0,0,1,3,23.14Z" transform="translate(0.78 0.71)"/><path class="h" d="M210.19,723a11,11,0,1,1,1.06-18.18,11,11,0,1,1,4.25,7.76A11,11,0,0,1,210.19,723Z" transform="translate(0.78 0.71)"/><path class="h" d="M248.05,886.92a20.66,20.66,0,0,1-2.62,1.31,18.4,18.4,0,0,1,7.9-5.9A19.54,19.54,0,0,1,248.05,886.92Z" transform="translate(0.78 0.71)"/><path class="h" d="M254.61,881.91c-.44.12-.86.26-1.28.42a16.35,16.35,0,0,0,1-1.35C254.45,881.29,254.53,881.6,254.61,881.91Z" transform="translate(0.78 0.71)"/><path class="h" d="M248.05,886.92a20.66,20.66,0,0,1-2.62,1.31,18.4,18.4,0,0,1,7.9-5.9A19.54,19.54,0,0,1,248.05,886.92Z" transform="translate(0.78 0.71)"/><path class="h" d="M248.05,886.92a20.66,20.66,0,0,1-2.62,1.31,18.4,18.4,0,0,1,7.9-5.9A19.54,19.54,0,0,1,248.05,886.92Z" transform="translate(0.78 0.71)"/><circle class="h" cx="172.73" cy="685.57" r="20.01"/><circle class="h" cx="219.95" cy="673.35" r="8.92"/><path class="h" d="M309.84,681.51a12.89,12.89,0,0,1-1.37-3.21A30.56,30.56,0,0,1,277.84,692a9.46,9.46,0,0,1-.12,1.07,8.85,8.85,0,0,1,6.12,4.2,9,9,0,0,1-15.54,9.26,8.83,8.83,0,0,1-1.23-4.1,11.1,11.1,0,0,1-9.85-5.42c-.13-.23-.26-.47-.38-.71a13,13,0,1,1-3.27-25.34,30.57,30.57,0,1,1,59.64-6.49,10.17,10.17,0,0,1,1.15-.79,13,13,0,1,1-4.52,17.88Z" transform="translate(0.78 0.71)"/><circle class="h" cx="422.13" cy="761.42" r="12.58"/><circle class="h" cx="415.16" cy="789.17" r="4.94"/><circle class="h" cx="353.29" cy="638.39" r="20.01"/><circle class="h" cx="423.06" cy="601.26" r="4.91"/><ellipse class="h" cx="317.92" cy="595.2" rx="6.12" ry="6.03" transform="matrix(0.86, -0.51, 0.51, 0.86, -259.13, 247.41)"/><path class="h" d="M324.23,576a5,5,0,0,1-7.51-5.06,3.76,3.76,0,0,1-.93-1,4,4,0,1,1,6.88-4.1,3.74,3.74,0,0,1,.46,1.12,4.93,4.93,0,0,1,2.83,2.23A5,5,0,0,1,324.23,576Z" transform="translate(0.78 0.71)"/><path class="h" d="M323.21,560a5.08,5.08,0,0,1-6.95-1.76,5,5,0,0,1-.49-4,14,14,0,0,1-13.8-1.84,14,14,0,0,1-23.91-.24,13,13,0,0,1-.85-1.66,15,15,0,0,1,14.83-26,14.07,14.07,0,0,1,12.67,4.1,14,14,0,0,1,16.19,22,5.07,5.07,0,0,1,2.31,9.4Z" transform="translate(0.78 0.71)"/><path class="h" d="M292.14,588.69a10.11,10.11,0,0,1-13.86-3.52,11.42,11.42,0,0,1-.54-1,7.79,7.79,0,0,1-2.5,2.37,8,8,0,0,1-10.3-1.84A7.95,7.95,0,1,1,267,571a7.94,7.94,0,1,1,13.84,1,9.07,9.07,0,0,1,1-.66,10.12,10.12,0,1,1,10.36,17.38Z" transform="translate(0.78 0.71)"/><circle class="h" cx="336.12" cy="533.14" r="4.26"/><path class="h" d="M337.48,525l-2.56-4.29-2.56-4.3,2.56,4.3Z" transform="translate(0.78 0.71)"/><path class="h" d="M335.74,559a4.42,4.42,0,1,1-4.53-7.59,4.09,4.09,0,0,1,.51-.26,4.54,4.54,0,0,1-.82-1,5,5,0,1,1,9.2-3,4,4,0,1,1-2.24,7.46A4.42,4.42,0,0,1,335.74,559Z" transform="translate(0.78 0.71)"/><circle class="h" cx="335.7" cy="521.46" r="5"/><path class="h" d="M328.8,513.54a21,21,0,0,1-28.45-29.37,20.85,20.85,0,1,1,24.77-30.36c.21.36.42.72.61,1.09a20.94,20.94,0,0,1,26.58,20.16,3,3,0,0,1,.82,5.53,3.1,3.1,0,0,1-1.7.43A21,21,0,0,1,339,494.53,21,21,0,0,1,328.8,513.54Z" transform="translate(0.78 0.71)"/><circle class="h" cx="349.97" cy="492.68" r="3.03"/><path class="h" d="M276.88,493.27a22,22,0,1,1-22.54-37.81,21.46,21.46,0,0,1,6.29-2.53,1.77,1.77,0,0,1,.33-.08l-.21,0a13.83,13.83,0,1,1,9.66-2.44,13,13,0,0,1,9.29,6.22,11.83,11.83,0,0,1,.75,1.46,22.3,22.3,0,0,1,4.08,5A22,22,0,0,1,276.88,493.27Z" transform="translate(0.78 0.71)"/><path class="h" d="M261,452.85a1.77,1.77,0,0,0-.33.08.28.28,0,0,1,.12-.1Z" transform="translate(0.78 0.71)"/><path class="h" d="M206.62,483.47a7.07,7.07,0,0,1-.69-.27,8.15,8.15,0,0,1-2.53,2.31,8.51,8.51,0,1,1-8.72-14.62,2.57,2.57,0,0,1,.49-.26c-4.58-8.29-1.29-20.13,7.47-25.35A19.57,19.57,0,0,1,229.2,452c5.51,8.75,3.91,22.78-7.28,29.25C216.87,484.2,210.47,484.74,206.62,483.47Z" transform="translate(0.78 0.71)"/><path class="h" d="M234.51,411.39a5,5,0,0,0,5.26-7.5,5,5,0,0,0-3.83-2.42,10,10,0,0,0-5.88-17.36,6.85,6.85,0,0,0-1-3.2,7,7,0,0,0-12,7.14,6.83,6.83,0,0,0,2.6,2.52,10,10,0,0,0,.77,8.69,9.76,9.76,0,0,0,2.4,2.74,21,21,0,1,0,11.64,9.39ZM227.23,404a10.24,10.24,0,0,0,3.9,0,4.81,4.81,0,0,0-.68,2.43A20.1,20.1,0,0,0,227.23,404Z" transform="translate(0.78 0.71)"/><circle class="h" cx="249.6" cy="388.5" r="5"/><path class="h" d="M156.32,435.41a7.45,7.45,0,0,1-10.24-2.54,7.07,7.07,0,0,1-1-3.88A8.92,8.92,0,0,1,137,415a7.78,7.78,0,1,1,6.4-3.84,8.94,8.94,0,0,1,8.62,4.31,8.78,8.78,0,0,1,1.12,6.1,7.38,7.38,0,0,1,5.78,3.58A7.46,7.46,0,0,1,156.32,435.41Z" transform="translate(0.78 0.71)"/><path class="h" d="M49,446.73a19.86,19.86,0,0,0,5-25.91c-.22-.36-.44-.71-.69-1.05A12.51,12.51,0,0,0,65.08,400.9a10.63,10.63,0,0,0-.8-1.18,5.19,5.19,0,0,0,.67-.33,4.84,4.84,0,0,0,1.29-1.13,22.47,22.47,0,1,0-3.52-7.88,4.85,4.85,0,0,0-5.1,4.85,12.55,12.55,0,0,0-15.29,8.57,4.83,4.83,0,0,0-2.35.68A4.78,4.78,0,0,0,38.32,411a1.77,1.77,0,0,0,.12.17,18.15,18.15,0,0,0-3.61,0A4.85,4.85,0,0,0,26.62,414a3.13,3.13,0,0,0,0,.61l-.86,0a20.11,20.11,0,0,0-16,7.41,20,20,0,0,0-6.4,27.1,20.79,20.79,0,0,0,1.79,2.52,19.91,19.91,0,0,0,7.44,11.6,20.27,20.27,0,0,0,1.23,2.41A20,20,0,0,0,49,446.73Zm-13,4.72c.16-.19.31-.4.46-.6h.42C36.63,451.06,36.34,451.25,36,451.45Z" transform="translate(0.78 0.71)"/><circle class="h" cx="129.26" cy="372.35" r="7.5"/><path class="h" d="M26.58,414.6l-.86,0c.29-.2.59-.39.9-.58A3.13,3.13,0,0,0,26.58,414.6Z" transform="translate(0.78 0.71)"/><path class="h" d="M36,451.45c.16-.19.31-.4.46-.6h.42C36.63,451.06,36.34,451.25,36,451.45Z" transform="translate(0.78 0.71)"/><path class="h" d="M36,451.45c.16-.19.31-.4.46-.6h.42C36.63,451.06,36.34,451.25,36,451.45Z" transform="translate(0.78 0.71)"/><path class="h" d="M36,451.45c.16-.19.31-.4.46-.6h.42C36.63,451.06,36.34,451.25,36,451.45Z" transform="translate(0.78 0.71)"/><circle class="h" cx="99.24" cy="467.35" r="5"/><circle class="h" cx="117.36" cy="502.18" r="5"/><circle class="h" cx="162.48" cy="581.66" r="5"/><path class="h" d="M51.35,515.26a9,9,0,0,1-12.42-3.14,7.9,7.9,0,0,1-.86-2,20,20,0,1,1,6-11.33,9,9,0,0,1,7.26,16.43Z" transform="translate(0.78 0.71)"/><circle class="h" cx="66.42" cy="570.61" r="15"/><circle class="h" cx="96.12" cy="600.18" r="5.08"/><path class="h" d="M112.21,629.56a5.09,5.09,0,0,1-7-7,5.08,5.08,0,1,1,4.45-2.49,5.08,5.08,0,0,1,2.54,9.45Z" transform="translate(0.78 0.71)"/><path class="h" d="M199.51,660.48A10,10,0,0,1,185.8,657a9.45,9.45,0,0,1-.69-1.39,20,20,0,0,1-3.6-36,19.32,19.32,0,0,1,4.88-2.09,9.85,9.85,0,1,1,18.88,4.56,19.75,19.75,0,0,1,3.62,4.46,20,20,0,0,1-4.51,25.68A10,10,0,0,1,199.51,660.48Z" transform="translate(0.78 0.71)"/><circle class="h" cx="212.09" cy="599.87" r="11.72"/><circle class="h" cx="124.78" cy="356.15" r="4.82"/><path class="h" d="M143.37,355a4.57,4.57,0,0,1-6.26-1.59,4.34,4.34,0,0,1-.49-1.18A5,5,0,1,1,139,345a4.52,4.52,0,0,1,.62,1.67,4.57,4.57,0,0,1,3.71,8.28Z" transform="translate(0.78 0.71)"/><circle class="h" cx="145" cy="341.58" r="4.79"/><circle class="h" cx="155.03" cy="334.18" r="4.79"/><circle class="h" cx="166.75" cy="325.8" r="4.79"/><circle class="h" cx="176.18" cy="319.24" r="4.79"/><circle class="h" cx="186.11" cy="312.71" r="4.79"/><circle class="h" cx="193.97" cy="306.06" r="4.79"/><circle class="h" cx="203.52" cy="299.43" r="4.79"/><circle class="h" cx="212.04" cy="293.18" r="4.79"/><circle class="h" cx="220.84" cy="286.21" r="4.79"/><circle class="h" cx="230.74" cy="279.69" r="4.79"/><circle class="h" cx="239.85" cy="273.57" r="4.79"/><circle class="h" cx="249.06" cy="266.05" r="4.79"/><circle class="h" cx="259.49" cy="259.65" r="4.79"/><circle class="h" cx="269.91" cy="251.28" r="4.79"/><path class="h" d="M284,245.45a4.79,4.79,0,1,1-3-6.36,11,11,0,1,1,3,6.36Z" transform="translate(0.78 0.71)"/><circle class="h" cx="288.62" cy="353.34" r="5"/><circle class="h" cx="296.37" cy="325.71" r="7.5"/><path class="h" d="M355.46,381.26a19.76,19.76,0,0,1-27.08-6.86,21.16,21.16,0,0,1-1.29-2.56,24,24,0,1,1,28.77-24.27,19.75,19.75,0,0,1-.4,33.69Z" transform="translate(0.78 0.71)"/><circle class="h" cx="331.85" cy="389.76" r="4.93"/><circle class="h" cx="353.7" cy="408.54" r="6.9"/><circle class="h" cx="409.21" cy="376.4" r="7"/><circle class="h" cx="357.96" cy="316.35" r="14.89"/><circle class="h" cx="336.73" cy="202.61" r="4.85"/><path class="h" d="M419.67,263a15.23,15.23,0,0,0-3.41-4,18.51,18.51,0,0,0,2.27-22c-.18-.31-.38-.61-.58-.9a17.9,17.9,0,0,0-22-27.3,10,10,0,0,0-9.35-8.23,11.86,11.86,0,0,0-1-2.07A11.52,11.52,0,0,0,382,194.7a11.68,11.68,0,0,0,5.33-1.3,7.5,7.5,0,0,0,11.8-9.08,7.4,7.4,0,0,0-3.56-3.07,15.61,15.61,0,0,0-.31-6.62,6.36,6.36,0,0,0,11.58-4.69,7,7,0,0,0,7.89-7.56l.13,0a5.47,5.47,0,0,0,8.23-3.11,3,3,0,0,0,.4-.2,5.49,5.49,0,0,0,2.4-6.45,5.48,5.48,0,0,0-4-9.1,5.57,5.57,0,0,0-8.62,5.06,6.86,6.86,0,0,0-3.58,1,7,7,0,0,0-3.41,6.53,7,7,0,0,0-5.34,8.73,6.37,6.37,0,0,0-6.63,7.21c-.2-.41-.42-.83-.66-1.23a15.52,15.52,0,0,0-27.92,2.67l-.42.22a4.86,4.86,0,0,0-1.68,6.65,4.71,4.71,0,0,0,1.49,1.55,15.07,15.07,0,0,0,.42,1.6,11,11,0,0,0-3-.3c0-.09-.1-.18-.15-.27a4.85,4.85,0,0,0-8.39,4.87,10.93,10.93,0,0,0-1.84,4.31,4.67,4.67,0,0,0-.52-1.25A4.86,4.86,0,1,0,352,195a10.8,10.8,0,0,0,1.5,4.73c.07.11.14.23.22.34a6.86,6.86,0,0,0,.42,6.2,8.3,8.3,0,0,0,.5.71,16,16,0,0,0,.64,15.17l0,.06a9.08,9.08,0,0,0-1.29,11,8.82,8.82,0,0,0,2.38,2.62,9.76,9.76,0,1,0,10.65,10.5,11.42,11.42,0,0,0,13.56,1.31,11.27,11.27,0,0,0,3.59-3.37,18.56,18.56,0,0,0,8.55,17.86,16,16,0,1,0,26.87.85ZM363,237.58a4.37,4.37,0,0,0,.54-.08V238C363.33,237.83,363.16,237.69,363,237.58Zm21.74-5.44a11.09,11.09,0,0,0-6.55-5,15.89,15.89,0,0,0,5.62-6.92,9.26,9.26,0,0,0,2.92.27,17.76,17.76,0,0,0,2,13.44,2.43,2.43,0,0,0,.14.2,18.22,18.22,0,0,0-2.57,3.67A11,11,0,0,0,384.72,232.14Z" transform="translate(0.78 0.71)"/><path class="h" d="M455.44,126.05a7.44,7.44,0,0,1-11.26-6.43,8.37,8.37,0,1,1,7.09-7.42,7.45,7.45,0,0,1,4.17,13.85Z" transform="translate(0.78 0.71)"/><circle class="h" cx="433.11" cy="122.06" r="4.85"/><circle class="h" cx="463.79" cy="147.45" r="6"/><path class="h" d="M456.08,291.9a15.45,15.45,0,0,1-15.81-26.54.69.69,0,0,1,.19-.1,17.95,17.95,0,0,1,17.29-14.14,14.93,14.93,0,0,1,1.54-10.19,21,21,0,0,1-3.6-37.72,19.57,19.57,0,0,1,2.54-1.29,10,10,0,1,1,19.58,1.7,21,21,0,0,1,3.45,32.4,14.81,14.81,0,0,1,4,4.43,15,15,0,0,1-2.93,18.87,11.3,11.3,0,0,1-5.42,8.13,10.54,10.54,0,0,1-.94.5,18,18,0,0,1-8.74,16.64,18.21,18.21,0,0,1-6,2.26A15.34,15.34,0,0,1,456.08,291.9Z" transform="translate(0.78 0.71)"/><path class="h" d="M495.75,310.77a5,5,0,0,1-6.37-7.44,4.74,4.74,0,0,1-1.49-1.56,5,5,0,1,1,8.1.61,4.8,4.8,0,0,1,1.5,1.57A5,5,0,0,1,495.75,310.77Z" transform="translate(0.78 0.71)"/><path class="h" d="M512.28,318.54A9,9,0,1,1,503,303a9.67,9.67,0,0,1,1.7-.79,9,9,0,1,1,13,11,8.9,8.9,0,0,1-1.63.76A9,9,0,0,1,512.28,318.54Z" transform="translate(0.78 0.71)"/><circle class="h" cx="506.96" cy="335.9" r="5.01"/><path class="h" d="M502.35,361.52a9,9,0,1,1,1.56-14.33,5.34,5.34,0,0,1,.93-.69,5.7,5.7,0,1,1,1.36,10.37A8.9,8.9,0,0,1,502.35,361.52Z" transform="translate(0.78 0.71)"/><circle class="h" cx="510.69" cy="369.46" r="8.93"/><circle class="h" cx="488.7" cy="387.59" r="6.89"/><circle class="h" cx="460.63" cy="353.95" r="5.58"/><path class="h" d="M536.25,462.14a4.52,4.52,0,0,1-.51.34,9.08,9.08,0,1,1-2.57-16.63,17,17,0,0,1,14-11.45,16.95,16.95,0,1,1,19,17.86,17,17,0,0,1-29.92,9.88Z" transform="translate(0.78 0.71)"/><circle class="h" cx="553.84" cy="475.11" r="4.95"/><path class="h" d="M583.39,379.72a24.59,24.59,0,0,1-46.24.24,20.89,20.89,0,0,1-11.71-30.35,10.35,10.35,0,0,1,2-11.69,18.6,18.6,0,0,1-1.11-1.67,24.94,24.94,0,0,1-2.78-18.91,17.21,17.21,0,0,1,27.76-18.66,25,25,0,0,1,18,12c.1.17.2.33.28.5a20.69,20.69,0,0,1,16.42,6.7,9,9,0,1,1,3.31,4.92,19.6,19.6,0,0,1,1.77,5.53,16.42,16.42,0,0,1,15.71,7.95,16.23,16.23,0,0,1,1.46,3.18,9,9,0,1,1,5.56,8.86,10.88,10.88,0,0,1,1.33,17.26,19.38,19.38,0,0,1-31.72,14.18Z" transform="translate(0.78 0.71)"/><path class="h" d="M664.76,477.38a14,14,0,0,1-19.2-4.85,13.81,13.81,0,0,1-1.8-5A25,25,0,1,1,615,428.1a15,15,0,0,1-1.38-1.93,14,14,0,0,1,1.64-16.56,13.91,13.91,0,1,1,10.4-4.61,14,14,0,0,1,10.25,23.52,24.31,24.31,0,0,1,6.87,4.93A14,14,0,0,1,659.6,451.5a14,14,0,0,1,5.16,25.88Z" transform="translate(0.78 0.71)"/><circle class="h" cx="421.1" cy="306.66" r="14"/><path class="h" d="M537,550a26,26,0,1,1-24.19-46,5.93,5.93,0,0,1-4.16-10.92,4.65,4.65,0,0,1,.93-.44,9.78,9.78,0,0,1-2.66-2.94,10,10,0,1,1,13.76,3.48,9.78,9.78,0,0,1-4.3,1.37,4.07,4.07,0,0,1,.4.59,5.92,5.92,0,0,1-1.84,8A26,26,0,0,1,537,550Z" transform="translate(0.78 0.71)"/><circle class="h" cx="567.51" cy="541.97" r="11.94"/><circle class="h" cx="575.39" cy="525.55" r="6"/><path class="h" d="M589.75,603.87a5,5,0,0,1-6.86-1.74,4.7,4.7,0,0,1-.4-.85,5.28,5.28,0,1,1,6.27-6.46,5,5,0,0,1,1,9Z" transform="translate(0.78 0.71)"/><path class="h" d="M612.25,613.74a5,5,0,1,1,1.75-6.91A5,5,0,0,1,612.25,613.74Z" transform="translate(0.78 0.71)"/><circle class="h" cx="557.11" cy="594.73" r="9.12"/><circle class="h" cx="532.8" cy="580.83" r="9.39"/><circle class="h" cx="537.8" cy="601.22" r="11.48"/><path class="h" d="M509.92,607.87a9.56,9.56,0,0,1-14.34-6.79A8.95,8.95,0,0,1,483.8,588.8,11.5,11.5,0,1,1,492,580c1-.31,5.57-1.6,8.89.12,3.07,1.58,5,2.54,6.73,5.87a13.9,13.9,0,0,1,1.49,5.08,9.54,9.54,0,0,1,.83,16.85Z" transform="translate(0.78 0.71)"/><circle class="h" cx="468.39" cy="600.6" r="11.5"/><path class="h" d="M455.87,552.49C464,545.8,464.39,535,464.39,535s9-6,9.76-19.21c.64-10.69-6.74-17.69-6.74-17.69s1.78-7.7-4.27-16.81C457.61,473,447.82,471,447.82,471a23.52,23.52,0,0,0-12.29-7.26,23.25,23.25,0,0,0-14.25.67A31.06,31.06,0,0,0,405,465.79c-7.8,3-12.29,11.36-12.29,11.36s-10.31,4.08-14.28,14.9c-2.66,7.26-.21,16-.21,16a26.75,26.75,0,0,0-1.33,15c1.76,8,8.2,13.87,8.2,13.87s.47,5.44,6.73,12.44c5.08,5.66,13,6.91,13,6.91s7.64,8.35,19.41,8.16a24.37,24.37,0,0,0,15.14-5.82S447.14,559.62,455.87,552.49Zm-30.72-27.9a18,18,0,0,0-2.56-.2,15.94,15.94,0,0,0-2.27-3.13,30.14,30.14,0,0,0-4.06-2.92,9.23,9.23,0,0,0-.41-4.22,30.09,30.09,0,0,0-2-4.61s1.11-1.77,1.67-2.69a14.36,14.36,0,0,0,1-3.23,14.42,14.42,0,0,0,3-.58,12.75,12.75,0,0,0,3.28-1.53,11.72,11.72,0,0,0,2.89,1.08,28.65,28.65,0,0,0,3.9.49,23.37,23.37,0,0,0,2.45,3.17,38.59,38.59,0,0,0,3.54,2.63,37.35,37.35,0,0,0-1.41,4.95,53.37,53.37,0,0,0,.45,5.63,22.24,22.24,0,0,0-3.93,2c-1,.82-3.53,3.53-3.53,3.53Z" transform="translate(0.78 0.71)"/><circle class="h" cx="582.1" cy="479.41" r="5.53"/><path class="h" d="M626,537.5a10.24,10.24,0,0,1-1.35-.62,9.6,9.6,0,0,1,1-1A9.36,9.36,0,0,1,626,537.5Z" transform="translate(0.78 0.71)"/><path class="h" d="M626,537.5a10.24,10.24,0,0,1-1.35-.62,9.6,9.6,0,0,1,1-1A9.36,9.36,0,0,1,626,537.5Z" transform="translate(0.78 0.71)"/><path class="h" d="M639.64,555.23a12,12,0,0,1-16.43-4.15,12.17,12.17,0,0,1-1.27-3,11,11,0,0,1-1.74,1.26,12,12,0,0,1-15.26-18.25,12,12,0,0,1,17.33-13.64,11.81,11.81,0,0,1,1.94-1.45,12,12,0,0,1,15,18.4,11.85,11.85,0,0,1,4.58,4.4A12,12,0,0,1,639.64,555.23Z" transform="translate(0.78 0.71)"/><path class="h" d="M626,537.5a10.24,10.24,0,0,1-1.35-.62,9.6,9.6,0,0,1,1-1A9.36,9.36,0,0,1,626,537.5Z" transform="translate(0.78 0.71)"/><circle class="h" cx="641.27" cy="498.14" r="5.92"/><path class="h" d="M731.87,464.71A8.65,8.65,0,0,1,723,449.84a3.13,3.13,0,0,1,.36-.19,7.22,7.22,0,1,1,5-1,8.64,8.64,0,0,1,3.45,16Z" transform="translate(0.78 0.71)"/><path class="h" d="M728.42,448.69l-.11.06a7.12,7.12,0,0,1-4.94.9A8.51,8.51,0,0,1,728.42,448.69Z" transform="translate(0.78 0.71)"/><circle class="h" cx="673.44" cy="388.35" r="4.71"/><path class="h" d="M855.52,592.71l-1.64-4.58A17.83,17.83,0,0,1,855.52,592.71Z" transform="translate(0.78 0.71)"/><circle class="h" cx="646.29" cy="285.19" r="8.9"/><path class="h" d="M803.43,480.14a10.55,10.55,0,0,1-14.57-14.27,12.94,12.94,0,0,0,1.39-1.91,10.05,10.05,0,0,1,2.38-1.94,10.55,10.55,0,0,1,10.8,18.12Z" transform="translate(0.78 0.71)"/><path class="h" d="M769.61,467.9a17.44,17.44,0,1,1,3.18-24.31A14.13,14.13,0,0,1,790.25,464a9.51,9.51,0,0,0-1.39,1.91,13.88,13.88,0,0,1-3.47,2.92A14.11,14.11,0,0,1,769.61,467.9Z" transform="translate(0.78 0.71)"/><path class="h" d="M788.86,465.87a9.51,9.51,0,0,1,1.39-1.91A12.94,12.94,0,0,1,788.86,465.87Z" transform="translate(0.78 0.71)"/><path class="h" d="M717.13,764.76l45-40.35L864.41,616.87l-6.76-18.22-1.38-3.73h-.41a15.14,15.14,0,0,0-.34-2.21l-1.64-4.58-16.27-45.44s-9,3.82-13.07,10.39a27.11,27.11,0,0,0-3.61,11c-7.31-5.65-15.79-7.55-25.06-4.77a20.15,20.15,0,0,0-2.61-7.15,20.51,20.51,0,0,0-19.11-10,14.09,14.09,0,0,0,.42-3.23,10.38,10.38,0,1,0-5-10.91,14,14,0,0,0-7.24-3.21A16.56,16.56,0,0,0,738.69,504a14.15,14.15,0,0,0-1.83,1.27,20.55,20.55,0,0,0-1.42-2.91,19.66,19.66,0,0,0-17.71-9.57,16.57,16.57,0,1,0-32,8.62,16.86,16.86,0,0,0-4.15,1.76,16.39,16.39,0,0,0-6.23,6.61,8.86,8.86,0,0,0-11.86,9.38,17.68,17.68,0,0,0-8.18,2.5,17.92,17.92,0,0,0-.55,30.44,15,15,0,0,0-3.64,8.27,14.86,14.86,0,0,0-14.91,22.31c4.2,7.06,7.59,8.79,15.79,9.1a23.85,23.85,0,0,0,10-1.56c9.5,9.49,3.4,19.33,2.61,25.52-3.32-1.32-6.63-12.44-13.3-17.15-8.64-6.11-14.7-3-19.81,1.63A20,20,0,0,0,626,622.8c-11.42,4.71-15.73,14-13,23-5.82-1.63-29.75,7.59-28.27,27.81-21.3,5.2-29.51,30.66-26.1,44.73-9.19,4.75-18.74,16-14.64,31.92,2.84,11,8.24,19,13.81,21.54-1.69,5-3.5,12.11,4,25,6.18,10.64,10.35,3.75,13.83,18,2.83,11.61,9.87,14.14,12.65,15.93-3.16,6.46,0,14.37,3.92,21,5,8.39,13.95,11.5,23,9.47l2.46-.74,116.41-48.79ZM728,599.13a23.6,23.6,0,0,0-3.17,2.27,19.12,19.12,0,0,0-2.26-5.68,19.37,19.37,0,0,0-23-8.37,16.43,16.43,0,0,0-20-18.52,15.11,15.11,0,0,0,.78-11.86,21.74,21.74,0,0,0,13.17-.82,23.3,23.3,0,0,0,11.86-10.44,17.59,17.59,0,0,0,1.73-.88c.16-.1.33-.2.47-.3a19.23,19.23,0,0,0,35.13-10.41,16,16,0,0,0,4.25.6,14.09,14.09,0,0,0,10.73,18,20.47,20.47,0,0,0-1,18.07c-.37.2-.74.4-1.11.62a23.33,23.33,0,0,0-10.87,25A23.22,23.22,0,0,0,728,599.13Z" transform="translate(0.78 0.71)"/><circle class="h" cx="735.34" cy="420.46" r="6.82"/><circle class="h" cx="692.44" cy="299.29" r="7.24"/><path class="h" d="M728.42,448.69l-.11.06a7.12,7.12,0,0,1-4.94.9A8.51,8.51,0,0,1,728.42,448.69Z" transform="translate(0.78 0.71)"/><path class="h" d="M734.2,306.09a8.31,8.31,0,0,1-11.39-2.88,8,8,0,0,1-.44-.88,7.47,7.47,0,0,1-1.72,1.37,8.31,8.31,0,1,1,2.89-11.39,8.93,8.93,0,0,1,.45.87,7.36,7.36,0,0,1,1.7-1.37,8.31,8.31,0,0,1,8.51,14.28Z" transform="translate(0.78 0.71)"/><path class="h" d="M611.45,212.84a.7.7,0,0,1-.19.06c0-.1,0-.2.06-.3Z" transform="translate(0.78 0.71)"/><path class="h" d="M611.45,212.84a.7.7,0,0,1-.19.06c0-.1,0-.2.06-.3Z" transform="translate(0.78 0.71)"/><path class="h" d="M611.45,212.84a.7.7,0,0,1-.19.06c0-.1,0-.2.06-.3Z" transform="translate(0.78 0.71)"/><path class="h" d="M518,206.55c-.69.81-.76.56,0,0Z" transform="translate(0.78 0.71)"/><path class="h" d="M813.58,336.42,802.66,317.8,758,268.89l-17.57-18.77-26-27.8-55.86-48.18-76.86-128-40.33-28L507.1,0l-19,42L454,86.64s4.78,13.32,12,22.17a126,126,0,0,0,9.84,10s-.95,13.4.11,17.1c2.37,8.2,6.65,21.67,17.61,23.52,8.3,1.4,22-2.33,22-2.33l10.78-3.73L525,144.7l10.4-1.63,7,41.35,6-1.28,1.95,13.47-35,5.83L513,189.64l7.92-1.48-3.81-22.37-10.29,1.32v.06c-3.93.82-9,.29-13.08,6.45-5.85,8.74-3,24.47,1.23,30.7,3.32,4.88-.07,16.13.12,19.14.59,9.44,5.54,11.09,2.79,17.21A25.55,25.55,0,0,0,503,267.5c5.23,5.82,15.21,5.08,21,2.51,6.18-2.73,5,.3,10.89,3.55,15.95,8.76,28.73-3.23,28.73-3.23S568,279.8,583,283.39c11.29,2.7,23.79-5.75,26.74-8.45,1.19-1.08,6.61,4.36,16.35,2.32A25.1,25.1,0,0,0,643,264.9c.07.26,3.25,6.24,9.3,8.14,6.86,2.16,10.21-2.27,10.21-2.27a20.88,20.88,0,0,0,9.16,2.25c3.69-.07,8.4-3.31,8.4-3.31s3.28,4.29,11.35-.4c5.53-3.22,3.44-9.69,3.44-9.69s7.78-1.61,12.81-5.59a89.2,89.2,0,0,0,8.67-7.81s4.2,7,15,9.35a8.5,8.5,0,0,0,1.74.21c2.24,7.06,6.31,16.24,10.37,21.28,8.08,10.05,15.34,13.15,15.34,13.15s-.71,6.44,5.66,16.81c5.72,9.31,9.1,10.27,9.1,10.27-3.67,12.48,3.51,22,7.83,24.75-6.08,5.45-8.91,16.84-6.43,24.36.16.46-4-.26-8.83,4.8a14.72,14.72,0,0,0-3.28,13.9c-.4.18-10.55,3.77-10.39,15.48-1.39.3-6.52,7.58-2.95,14.09,3,5.45,8.25,9.85,15.42,9.32,1.39-.1,7.22-1.34,8.31-3.79.34,1.28,12.38,11.54,23.36,7.55l5.2,2.82ZM518,206.55c-.69.81-.76.56,0,0Z" transform="translate(0.78 0.71)"/><path class="h" d="M518,206.55c-.69.81-.76.56,0,0Z" transform="translate(0.78 0.71)"/><circle class="h" cx="781.8" cy="498.01" r="17.75"/><path class="h" d="M788.86,465.87a9.51,9.51,0,0,1,1.39-1.91A12.94,12.94,0,0,1,788.86,465.87Z" transform="translate(0.78 0.71)"/><path class="h" d="M857.65,598.65l-1.38-3.73h-.41a15.14,15.14,0,0,0-.34-2.21Z" transform="translate(0.78 0.71)"/><line class="i" x1="165.51" y1="465.36" x2="151.18" y2="473.04"/><line class="i" x1="161.72" y1="458.31" x2="147.4" y2="465.99"/><line class="i" x1="157.94" y1="451.26" x2="143.62" y2="458.94"/><line class="i" x1="154.16" y1="444.21" x2="139.84" y2="451.89"/><line class="i" x1="150.38" y1="437.15" x2="136.05" y2="444.84"/><line class="i" x1="146.59" y1="430.1" x2="132.27" y2="437.78"/><line class="i" x1="142.81" y1="423.05" x2="128.49" y2="430.73"/><line class="i" x1="139.03" y1="416" x2="124.71" y2="423.68"/><line class="i" x1="135.25" y1="408.95" x2="120.92" y2="416.63"/><line class="i" x1="80.24" y1="435.14" x2="96.57" y2="464.28"/><line class="i" x1="100.48" y1="471.26" x2="115.76" y2="498.52"/><line class="i" x1="111.55" y1="457.04" x2="100.43" y2="463.27"/><line class="i" x1="185.39" y1="622.75" x2="170.79" y2="630.89"/><line class="i" x1="119.68" y1="505.5" x2="135.1" y2="533.03"/><polyline class="i" points="178.86 577.09 164.41 585.2 149.84 593.32"/><polyline class="i" points="107.34 449.53 93.04 457.55 78.63 465.59"/><polyline class="i" points="141 509.56 126.62 517.62 112.14 525.7"/><polyline class="i" points="145.21 517.07 130.82 525.13 116.33 533.21"/><line class="i" x1="132.58" y1="494.56" x2="120.3" y2="501.44"/><polyline class="i" points="136.79 502.06 122.42 510.11 107.95 518.18"/><polyline class="i" points="149.41 524.57 135.02 532.64 120.52 540.72"/><polyline class="i" points="157.83 539.58 143.41 547.66 128.9 555.75"/><polyline class="i" points="162.03 547.08 147.61 555.16 133.09 563.26"/><polyline class="i" points="166.24 554.58 151.81 562.67 137.28 570.78"/><polyline class="i" points="170.45 562.09 156.01 570.18 141.47 578.29"/><polyline class="i" points="174.65 569.59 160.21 577.69 145.66 585.8"/><polyline class="i" points="183.07 584.6 168.6 592.71 154.03 600.83"/><polyline class="i" points="187.28 592.1 172.8 600.22 158.22 608.35"/><polyline class="i" points="191.48 599.61 177 607.73 162.41 615.86"/><line class="i" x1="181.18" y1="615.24" x2="166.6" y2="623.37"/><polyline class="i" points="103.13 442.03 88.84 450.05 74.44 458.07"/><polyline class="i" points="98.93 434.53 84.64 442.54 70.25 450.56"/><polyline class="i" points="94.72 427.02 80.44 435.03 80.24 435.14"/><polyline class="i" points="153.62 532.07 139.22 540.15 124.71 548.24"/><polyline class="i" points="124.17 479.55 109.83 487.59 95.39 495.64"/><polyline class="i" points="119.96 472.05 105.63 480.08 91.2 488.13"/><polyline class="i" points="128.38 487.05 114.03 495.1 99.58 503.15"/><polyline class="i" points="115.75 464.54 101.44 472.57 87.01 480.61"/><line class="i" x1="66.76" y1="497.24" x2="52.56" y2="505.25"/><line class="i" x1="117.69" y1="587.03" x2="103.28" y2="595.16"/><line class="i" x1="138.91" y1="624.45" x2="124.42" y2="632.62"/><line class="i" x1="130.42" y1="609.48" x2="115.96" y2="617.64"/><line class="i" x1="104.96" y1="564.58" x2="90.6" y2="572.68"/><line class="i" x1="155.88" y1="654.38" x2="141.32" y2="662.59"/><line class="i" x1="160.11" y1="661.87" x2="145.55" y2="670.08"/><line class="i" x1="54.03" y1="474.79" x2="40.68" y2="482.32"/><line class="i" x1="49.79" y1="467.31" x2="39.55" y2="473.08"/><line class="i" x1="151.64" y1="646.89" x2="137.1" y2="655.1"/><line class="i" x1="62.52" y1="489.75" x2="48.33" y2="497.76"/><line class="i" x1="58.28" y1="482.27" x2="44.11" y2="490.27"/><line class="i" x1="147.4" y1="639.41" x2="132.87" y2="647.61"/><line class="i" x1="143.15" y1="631.93" x2="128.64" y2="640.11"/><line class="i" x1="134.66" y1="616.96" x2="120.19" y2="625.13"/><line class="i" x1="126.18" y1="602" x2="111.74" y2="610.14"/><line class="i" x1="113.45" y1="579.55" x2="99.06" y2="587.67"/><line class="i" x1="121.93" y1="594.51" x2="107.51" y2="602.65"/><line class="i" x1="206.97" y1="551.36" x2="192.39" y2="559.49"/><line class="i" x1="96.47" y1="549.62" x2="82.15" y2="557.7"/><line class="i" x1="100.71" y1="557.1" x2="86.38" y2="565.19"/><line class="i" x1="79.49" y1="519.69" x2="65.24" y2="527.73"/><line class="i" x1="87.98" y1="534.65" x2="73.69" y2="542.71"/><line class="i" x1="92.23" y1="542.13" x2="77.92" y2="550.2"/><line class="i" x1="109.2" y1="572.07" x2="94.83" y2="580.17"/><line class="i" x1="75.25" y1="512.2" x2="61.01" y2="520.24"/><line class="i" x1="83.74" y1="527.17" x2="69.47" y2="535.22"/><line class="i" x1="71.01" y1="504.72" x2="56.79" y2="512.74"/><line class="i" x1="215.35" y1="566.39" x2="200.77" y2="574.52"/><line class="i" x1="202.78" y1="543.85" x2="188.2" y2="551.98"/><line class="i" x1="115.06" y1="504.37" x2="103.77" y2="510.67"/><line class="i" x1="211.16" y1="558.88" x2="196.58" y2="567.01"/><line class="i" x1="139.02" y1="540.01" x2="160.43" y2="578.22"/><line class="i" x1="95.19" y1="466.2" x2="82.82" y2="473.1"/><line class="i" x1="198.6" y1="536.34" x2="184.01" y2="544.47"/><line class="i" x1="179.82" y1="536.95" x2="200.77" y2="574.52"/><line class="i" x1="194.41" y1="528.82" x2="179.82" y2="536.95"/><polyline class="i" points="45.81 466.85 47.66 467.22 48.08 465.36"/><polyline class="i" points="88.79 412.27 90.49 411.46 89.71 409.71"/><polyline class="i" points="73.31 418.92 74.3 420.52 75.95 419.56"/><line class="i" x1="64.42" y1="431.02" x2="61.56" y2="433.81"/><line class="i" x1="61.73" y1="431.13" x2="63.02" y2="432.39"/><line class="i" x1="54.57" y1="447.69" x2="53.05" y2="451.39"/><line class="i" x1="52.14" y1="448.86" x2="53.82" y2="449.51"/><line class="i" x1="189.68" y1="334.51" x2="176.22" y2="331.5"/><line class="i" x1="214.14" y1="315.23" x2="195.74" y2="311.13"/><line class="i" x1="164.35" y1="585.2" x2="185.39" y2="622.75"/><line class="i" x1="259.56" y1="283.95" x2="240.97" y2="279.8"/><line class="i" x1="241.39" y1="296.46" x2="222.88" y2="292.33"/><line class="i" x1="250.48" y1="290.21" x2="231.92" y2="286.07"/><line class="i" x1="177.89" y1="323.71" x2="176.22" y2="331.5"/><line class="i" x1="280.88" y1="265.63" x2="277.7" y2="268.06"/><line class="i" x1="278.19" y1="265.42" x2="279.32" y2="266.82"/><polyline class="i" points="259.8 279.18 260.88 280.72 262.47 279.65"/><polyline class="i" points="294.33 255.11 295.88 254.03 294.82 252.44"/><line class="i" x1="205.05" y1="321.49" x2="186.7" y2="317.4"/><line class="i" x1="195.97" y1="327.75" x2="177.65" y2="323.66"/><line class="i" x1="408" y1="753.61" x2="391.31" y2="753.42"/><line class="i" x1="223.22" y1="308.98" x2="204.79" y2="304.86"/><line class="i" x1="232.31" y1="302.72" x2="213.83" y2="298.6"/><line class="i" x1="408.27" y1="729.6" x2="391.58" y2="729.41"/><line class="i" x1="410.28" y1="721.62" x2="391.67" y2="721.41"/><line class="i" x1="412.79" y1="713.65" x2="395.78" y2="713.41"/><line class="i" x1="360.01" y1="750.56" x2="343.64" y2="753.81"/><line class="i" x1="358.45" y1="742.71" x2="342.08" y2="745.96"/><line class="i" x1="356.9" y1="734.86" x2="340.52" y2="738.11"/><line class="i" x1="355.34" y1="727.01" x2="338.96" y2="730.26"/><line class="i" x1="353.78" y1="719.16" x2="338.38" y2="722.22"/><line class="i" x1="361.57" y1="758.41" x2="345.19" y2="761.66"/><line class="i" x1="407.91" y1="761.61" x2="391.21" y2="761.42"/><line class="i" x1="407.62" y1="745.6" x2="391.4" y2="745.42"/><line class="i" x1="364.69" y1="774.11" x2="346.24" y2="777.77"/><line class="i" x1="408.18" y1="737.61" x2="391.49" y2="737.42"/><line class="i" x1="363.13" y1="766.26" x2="346.75" y2="769.51"/><line class="i" x1="261.95" y1="598.14" x2="245.74" y2="599.34"/><polygon class="i" points="247.44 621.71 247.92 628.16 264.17 626.92 263.65 620.51 247.44 621.71"/><line class="i" x1="263.06" y1="612.53" x2="246.85" y2="613.73"/><line class="i" x1="264.78" y1="634.9" x2="248.53" y2="636.14"/><polygon class="j" points="245.74 599.34 246.21 605.79 262.47 604.55 261.95 598.14 245.74 599.34 245.74 599.34"/><path class="k" d="M245.09,600.45l2-2m-1.72,5.26,5.54-5.55m-3.17,6.72,7-7m-3.16,6.71,7-7m-3.15,6.69,5.89-5.9M259.19,604l2.32-2.33m-16.42-1.25,2-2m-1.72,5.26,5.54-5.55m-3.17,6.72,7-7m-3.16,6.71,7-7m-3.15,6.69,5.89-5.9M259.19,604l2.32-2.33" transform="translate(0.78 0.71)"/><polygon class="i" points="245.74 599.34 246.21 605.79 262.47 604.55 261.95 598.14 245.74 599.34"/><line class="i" x1="633.52" y1="383.41" x2="620.68" y2="393.45"/><line class="i" x1="619.69" y1="365.74" x2="606.86" y2="375.73"/><line class="i" x1="261.36" y1="590.16" x2="245.15" y2="591.36"/><polygon class="j" points="611.78 382.04 615.75 387.15 628.59 377.1 624.6 372.06 611.78 382.04 611.78 382.04"/><polygon class="i" points="611.78 382.04 615.75 387.15 628.59 377.1 624.6 372.06 611.78 382.04"/><line class="i" x1="264.17" y1="626.92" x2="247.92" y2="628.16"/><line class="i" x1="263.65" y1="620.51" x2="247.44" y2="621.71"/><polyline class="l" points="222.42 368.6 225.99 373.79 219.09 378.5 215.56 373.31"/><polyline class="l" points="229.32 363.67 233.28 369.4 227.07 373.72 223.09 367.97"/><polyline class="m" points="600.58 601.9 603.96 594.84 609.48 597.48 606.1 604.54 600.58 601.9"/><polyline class="n" points="512.53 607 519.59 605.69 521.46 615.85 514.47 617.06 512.53 607"/><polyline class="m" points="589.18 532.04 584.95 525.45 590.1 522.15 594.33 528.74 589.18 532.04"/><path class="m" d="M572.36,539.73a.4.4,0,1,1-.14.55.4.4,0,0,1,.14-.55Z" transform="translate(0.78 0.71)"/><rect class="m" x="572.97" y="535.53" width="6" height="6" transform="translate(-129.29 890.32) rotate(-69.52)"/><path class="m" d="M574.23,534.83a.4.4,0,1,1-.14.55.4.4,0,0,1,.14-.55Z" transform="translate(0.78 0.71)"/><path class="m" d="M579.11,536.67a.4.4,0,1,1-.14.55.41.41,0,0,1,.14-.55Z" transform="translate(0.78 0.71)"/><path class="m" d="M577.29,541.48a.4.4,0,1,1-.14.55.41.41,0,0,1,.14-.55Z" transform="translate(0.78 0.71)"/><polyline class="n" points="559.57 602.16 563.54 596.55 569.91 601.21 565.94 606.73 559.57 602.16"/><polyline class="n" points="493.05 823.44 503.16 821.48 499.69 803.68 489.67 805.42 493.05 823.44"/><rect class="l" x="217.38" y="792.7" width="4.59" height="4.69" transform="translate(-360.84 210.56) rotate(-29.36)"/><rect class="n" x="651.56" y="594.5" width="10" height="6" transform="translate(-176.37 903.16) rotate(-62.4)"/><rect class="n" x="655.56" y="600.31" width="16.98" height="10" transform="translate(-181.92 906.65) rotate(-61.9)"/><line class="o" x1="668.55" y1="568.9" x2="668.07" y2="568.71"/><rect class="l" x="333.42" y="224.86" width="20.07" height="11.35" transform="translate(19.47 487.43) rotate(-72.14)"/><rect class="l" x="206.36" y="351.31" width="23.25" height="7.11" transform="matrix(0.57, 0.82, -0.82, 0.57, 388.29, -24.83)"/><rect class="p" x="201.33" y="352.54" width="15.35" height="7.61" transform="translate(385.61 -16.78) rotate(55.58)"/><rect class="l" x="188.26" y="347.93" width="5.13" height="5.13" transform="translate(372.88 -4.32) rotate(55.58)"/><polyline class="l" points="461.7 160.25 423.61 157.28 424.36 144.53 462.58 147.08 461.7 160.25"/><polyline class="p" points="163.02 412.01 150.64 420.26 130.73 389.72 142.6 381.72"/><rect class="p" x="723.65" y="391.12" width="9.36" height="42.78" transform="translate(543.27 -402.93) rotate(47.65)"/><rect class="n" x="427.78" y="132.42" width="7.91" height="7.91" transform="translate(11.77 -30.15) rotate(4.15)"/><polygon class="p" points="445.2 881.66 453.68 846.58 463.52 848.61 455.02 883.96 445.2 881.66"/><rect class="n" x="403.47" y="808.4" width="33.02" height="5.96" transform="translate(212.69 -77.54) rotate(14.2)"/><polyline class="q" points="327.36 248.77 331.19 238.42 375.1 252.73 354.6 319.07 339.12 314.42"/><polyline class="n" points="512.77 623.78 513.24 625.21 499.31 629.2 493.9 609.25 507.91 605.43 508.25 606.72"/><polygon class="p" points="328.79 248.27 356.44 257.45 335.46 325.23 276.63 304.94 280.1 292.06 276.57 290.97 279.75 280.41 308.09 261.67 314.87 264.59 319.83 253.94 328.79 248.27"/><polygon class="l" points="238.44 370.63 213.51 334.74 224.32 326.96 227.79 331.73 263.25 307.12 270.36 317.29 272.21 315.99 278.24 324.46 276.33 325.79 285.1 338.36 238.44 370.63"/><polygon class="l" points="272.88 398.4 294.04 383.97 280.55 364.52 259.34 378.68 272.88 398.4"/><polyline class="p" points="298.58 527.15 310.21 505.11 328.73 515.13 317.38 537.28 298.58 527.15"/><polyline class="p" points="299.05 527.41 297.2 530.84 314.64 540.42 316.56 536.87"/><polyline class="p" points="310.61 505.32 312.5 501.83 329.17 511.13 327.44 514.43"/><polygon class="l" points="338.47 463.9 318.83 474.68 310.5 460.36 283.73 475.71 272.47 456.25 279.05 452.33 264.65 427.9 289.32 413.19 299.7 430.61 321.18 418.6 326.56 428.07 346.9 416.24 361.51 442.4 334.65 457.19 338.47 463.9"/><polyline class="l" points="398.67 387.8 359.25 331.99 343.05 343.36 350.16 352.89 349.21 353.56 382.74 399.85 398.67 387.8"/><polyline class="q" points="406.56 394.96 406.14 386.52 364.48 328.25 359.25 331.99"/><line class="r" x1="406.56" y1="394.96" x2="364.23" y2="427.32"/><line class="r" x1="375.21" y1="446.77" x2="364.23" y2="427.32"/><polyline class="q" points="375.21 446.77 320.4 477.22 318.83 474.68"/><polygon class="l" points="470.02 368.97 473.85 378.2 483.09 382.02 492.32 378.19 496.14 368.95 492.3 359.72 483.07 355.9 473.84 359.74 470.02 368.97"/><polygon class="l" points="289.92 864.57 304.76 841.26 313.38 846.53 298.36 870.07 289.92 864.57"/><line class="r" x1="286.25" y1="486.41" x2="315.89" y2="469.61"/><polyline class="q" points="286.25 486.41 280.89 476.88 283.52 475.36"/><polygon class="l" points="551.38 626.23 564.74 607.93 552.17 598.83 538.83 616.5 551.38 626.23"/><polygon class="p" points="733.53 362.27 726.45 368.49 746.52 390.86 703.13 430.01 682.98 407.93 700.94 392.08 681.62 370.13 664.42 385.34 647.36 366.48 674.82 341.56 669.59 335.8 684.42 322.18 689.59 327.72 696.92 321.04 733.53 362.27"/><polyline class="n" points="564.07 608.85 570.76 613.81 562.86 624.21 558.09 630.63 551.66 625.85"/><line class="r" x1="229.32" y1="363.67" x2="223.09" y2="367.97"/><line class="r" x1="215.56" y1="373.31" x2="222.42" y2="368.6"/><line class="r" x1="512.77" y1="623.78" x2="508.25" y2="606.72"/><polyline class="n" points="508.25 606.72 499.75 608.97 504.31 626.21 512.77 623.78"/><polygon class="l" points="593.78 435.6 598.14 460.1 611.46 458.03 612.39 463.74 617.72 462.87 612.35 432.23 593.78 435.6"/><polygon class="p" points="421.08 655.11 421.21 649.74 417.5 645.86 412.13 645.73 408.25 649.43 408.12 654.8 411.82 658.68 417.19 658.81 421.08 655.11"/><polyline class="l" points="551.16 197.31 516.12 203.16 513.75 190.35 521.54 189.04 516.03 155.38 527.21 154.11 525.93 145.81 536.1 144.29 543.12 185.32 549.13 184.35 551.16 197.31"/><line class="r" x1="350.67" y1="422.77" x2="381.97" y2="398.84"/><polyline class="q" points="217.8 403.38 220.9 408.06 191.39 427.24 178.16 407.25"/><line class="r" x1="280.02" y1="364.87" x2="269.52" y2="349.14"/><line class="r" x1="273.37" y1="369.32" x2="262.94" y2="353.69"/><line class="r" x1="279.27" y1="419.1" x2="244.23" y2="366.63"/><line class="r" x1="264.01" y1="375.56" x2="253.68" y2="360.09"/><polygon class="n" points="379.01 803.69 396.58 808.25 397.76 803.48 405.44 805.34 404.02 810.93 436.04 819.03 437.5 813.25 445.2 814.96 443.89 820.82 458.55 824.15 445.39 881.99 412.17 875.19 413.99 867.89 408.17 866.41 410.32 857.35 404.56 855.91 408.83 837.57 373.13 828.35 379.01 803.69"/><polyline class="q" points="612.39 463.74 595.42 466.67 589.8 436.22 593.78 435.6"/><polygon class="l" points="165.41 415.55 192.18 398.11 202.71 413.38 217.98 403.26 200.96 377.72 203.55 376.01 186.68 350.63 172.9 359.71 181.49 372.35 165.36 383.21 156.53 370.51 141.81 380.55 165.41 415.55"/><polyline class="l" points="219.04 783.3 226.43 779.15 233.46 791.55 226.16 795.7 219.04 783.3"/><polygon class="n" points="249.61 871.78 258.53 860.53 268.01 867.98 259.38 879.07 249.61 871.78"/><polyline class="p" points="536.49 489.93 543.88 480.44 551.19 486.13 544 495.56 536.49 489.93"/><line class="s" x1="395.83" y1="162.09" x2="488.89" y2="42.71"/><line class="s" x1="507.88" y1="0.71" x2="544.66" y2="19.38"/><line class="s" x1="544.66" y1="19.38" x2="582.44" y2="46.85"/><line class="s" x1="582.44" y1="46.85" x2="659.3" y2="174.84"/><line class="s" x1="418.35" y1="889.88" x2="400.11" y2="885.52"/><line class="s" x1="0.71" y1="435.34" x2="395.83" y2="162.09"/><line class="s" x1="488.89" y1="42.71" x2="507.88" y2="0.71"/><line class="s" x1="659.3" y1="174.84" x2="720.33" y2="227.49"/><line class="s" x1="720.33" y1="227.49" x2="803.43" y2="318.51"/><line class="s" x1="803.43" y1="318.51" x2="814.35" y2="337.13"/><line class="s" x1="814.35" y1="337.13" x2="800.84" y2="444.52"/><line class="s" x1="800.84" y1="444.52" x2="865.2" y2="617.58"/><line class="s" x1="865.2" y1="617.58" x2="762.91" y2="725.12"/><line class="s" x1="762.91" y1="725.12" x2="717.91" y2="765.47"/><line class="s" x1="717.91" y1="765.47" x2="734.87" y2="812.5"/><line class="s" x1="734.87" y1="812.5" x2="430.25" y2="938.46"/><line class="s" x1="430.25" y1="938.46" x2="418.35" y2="889.88"/><line class="s" x1="400.11" y1="885.52" x2="381.14" y2="850.29"/><line class="s" x1="381.14" y1="850.29" x2="267.69" y2="912.66"/><line class="s" x1="267.69" y1="912.66" x2="0.71" y2="435.35"/><text class="t" transform="translate(28.08 395.98) rotate(-32.48)">LAURE<tspan class="u" x="14.14" y="0">L</tspan><tspan x="16.34" y="0" xml:space="preserve"> GROVE</tspan><tspan class="v" x="32.84" y="0"> </tspan><tspan class="w" x="33.78" y="0">A</tspan><tspan x="36.3" y="0">VE. </tspan></text><text class="x" transform="matrix(0.49, 0.87, -0.87, 0.49, 126.37, 708.18)">SIR FRANCIS DRAKE B<tspan class="y" x="46.66" y="0">L</tspan><tspan class="z" x="48.7" y="0">VD. </tspan></text><rect class="l" x="271.08" y="414.4" width="20.84" height="28.82" transform="translate(506.5 -31.83) rotate(59.2)"/><rect class="l" x="332.86" y="424.76" width="29.08" height="14.79" transform="translate(541.53 -86.82) rotate(59.2)"/><rect class="l" x="306.73" y="416.1" width="11.06" height="24.5" transform="translate(521.1 -58.48) rotate(59.2)"/><polyline class="n" points="543.36 637.67 547.33 632.06 553.7 636.72 549.73 642.24 543.36 637.67"/><polyline class="n" points="579.86 614.52 583.83 608.91 590.2 613.57 586.23 619.09 579.86 614.52"/><rect class="p" x="212.71" y="362.58" width="6.35" height="7.61" transform="translate(396.88 -18.09) rotate(55.58)"/></svg>